<?xml version="1.0" encoding="UTF-8"?>
<svg id="Layer_2" data-name="Layer 2" xmlns="http://www.w3.org/2000/svg" viewBox="0 0 512 512">
  <defs>
    <style>
      .cls-1 {
        fill: #2ab676;
      }

      .cls-1, .cls-2, .cls-3, .cls-4, .cls-5 {
        stroke-width: 0px;
      }

      .cls-2 {
        fill: #fefffe;
      }

      .cls-3 {
        fill: #54bc82;
      }

      .cls-4 {
        fill: #64c18e;
      }

      .cls-5 {
        fill: #54bd83;
      }
    </style>
  </defs>
  <path class="cls-2" d="m252,511.9c-82.64,0-165.27-.03-247.91.1C.67,512.01,0,511.33,0,507.91.11,339.97.11,172.03,0,4.09,0,.67.67,0,4.09,0c83.64.12,167.27.1,250.91.1-2.59,1.97-3.36,4.58-3.29,7.79.18,7.28.1,14.57.12,21.85-12.61.87-25.2,1.76-37.66,4.19-58.77,11.49-106.58,40.94-142.25,88.85-40.4,54.26-53.64,115.29-39.65,181.44,12.16,57.5,43.23,103.15,90.92,137.48,3.81,2.74,8.08,3.94,12.76,2.78,6.75-1.67,11.24-5.87,12.64-12.69,1.41-6.89-1.29-12.47-6.9-16.51-13.59-9.77-26.15-20.72-36.63-33.78-44.86-55.9-57.96-118.51-35.03-186.51,20.88-61.91,64.69-102.31,126.35-123.29,17.88-6.09,36.41-9.19,55.38-9.13,0,7.15-.02,14.3-.01,21.44,0,2.82-.36,5.8,2.74,7.46,3.24,1.75,5.69-.13,8.19-1.84,17.96-12.28,35.94-24.54,53.89-36.84,7.4-5.07,7.37-8.19-.07-13.29-19.16-13.15-38.34-26.27-57.51-39.41,82.97,0,165.94.03,248.91-.1,3.42,0,4.1.67,4.09,4.09-.11,167.94-.11,335.87,0,503.81,0,3.42-.67,4.1-4.09,4.09-83.64-.12-167.27-.1-250.91-.1,2.29-2.36,3.2-5.06,3.08-8.44-.24-7.12-.04-14.26-.01-21.39,6.97-.45,13.98-.58,20.91-1.39,40.31-4.72,77.45-18.3,109.74-42.92,69.96-53.34,101.54-124.09,91.81-211.86-4.97-44.8-23.63-84.25-53.03-118.48-12.1-14.08-25.77-26.48-40.99-37.12-5.72-4-11.78-4.41-17.81-.74-6,3.64-8.56,9.11-7.71,16.09.73,6,4.83,9.48,9.36,12.88,47.69,35.78,75.02,83.37,79.24,142.81,4.38,61.69-17.2,114.11-62.54,156.12-36.21,33.55-79.54,50.64-128.92,52.2-.04-7.32-.13-14.65-.1-21.97.01-2.94-.07-5.79-3.12-7.29-2.8-1.38-5.08.05-7.36,1.61-18.52,12.71-37.07,25.36-55.58,38.07-5.79,3.98-5.78,7.53,0,11.5,16.18,11.12,32.41,22.15,48.56,33.3,3.23,2.23,6.86,3.95,9.45,7.03Zm-34.07-233.15c-8.56-11.22-17.05-22.51-25.71-33.65-8.96-11.53-24.65-13.77-36.02-5.33-11.37,8.45-13.92,24.18-5.3,35.95,12.57,17.19,25.31,34.27,38.36,51.09,10.96,14.13,30.44,16.55,44.53,5.68,8.81-6.8,17.15-14.23,25.7-21.37.95-.64,1.96-1.21,2.83-1.93,12.71-10.49,25.42-20.98,38.1-31.51,18.82-15.63,37.81-31.08,56.37-47.01,11.48-9.85,12.44-25.83,3.01-36.53-9.9-11.23-25.24-12.26-37-2.5-8.58,7.12-17.18,14.23-25.76,21.36-26.37,21.91-52.74,43.83-79.11,65.74Z"/>
  <path class="cls-1" d="m252,511.9c-2.6-3.09-6.23-4.8-9.45-7.03-16.15-11.15-32.38-22.19-48.56-33.3-5.78-3.98-5.8-7.53,0-11.5,18.51-12.72,37.06-25.37,55.58-38.07,2.27-1.56,4.55-2.99,7.36-1.61,3.05,1.5,3.13,4.35,3.12,7.29-.03,7.32.06,14.65.1,21.97-.02,10.81-.04,21.61-.06,32.42-.02,7.13-.22,14.27.01,21.39.11,3.39-.8,6.09-3.08,8.44h-5Z"/>
  <path class="cls-1" d="m251.84,29.74c-.03-7.29.06-14.57-.12-21.85-.08-3.21.69-5.82,3.29-7.79,1.33,0,2.67,0,4,0,19.17,13.14,38.35,26.26,57.51,39.41,7.44,5.1,7.47,8.22.07,13.29-17.95,12.3-35.93,24.56-53.89,36.84-2.49,1.71-4.95,3.59-8.19,1.84-3.09-1.67-2.74-4.65-2.74-7.46,0-7.15,0-14.3.01-21.44.02-10.94.04-21.89.06-32.83Z"/>
  <path class="cls-5" d="m251.84,29.74c-.02,10.94-.04,21.88-.06,32.83-18.97-.05-37.5,3.05-55.38,9.13-61.66,20.98-105.47,61.38-126.35,123.29-22.93,68-9.83,130.61,35.03,186.51,10.48,13.06,23.03,24.01,36.63,33.78,5.61,4.03,8.32,9.62,6.9,16.51-1.4,6.83-5.89,11.02-12.64,12.69-4.68,1.16-8.95-.04-12.76-2.78-47.69-34.33-78.76-79.98-90.92-137.48-13.99-66.15-.75-127.18,39.65-181.44,35.67-47.91,83.48-77.36,142.25-88.85,12.46-2.43,25.05-3.32,37.66-4.19Z"/>
  <path class="cls-5" d="m260.07,482.07c.02-10.81.04-21.61.06-32.42,49.39-1.57,92.71-18.65,128.92-52.2,45.33-42.01,66.92-94.43,62.54-156.12-4.22-59.44-31.55-107.03-79.24-142.81-4.52-3.39-8.63-6.87-9.36-12.88-.85-6.97,1.72-12.44,7.71-16.09,6.03-3.67,12.09-3.26,17.81.74,15.22,10.64,28.89,23.04,40.99,37.12,29.4,34.23,48.06,73.68,53.03,118.48,9.74,87.77-21.85,158.52-91.81,211.86-32.3,24.62-69.43,38.2-109.74,42.92-6.93.81-13.94.95-20.91,1.39Z"/>
  <path class="cls-4" d="m217.93,278.75c26.37-21.91,52.73-43.83,79.11-65.74,8.58-7.13,17.18-14.23,25.76-21.36,11.77-9.77,27.11-8.74,37,2.5,9.43,10.7,8.47,26.68-3.01,36.53-18.56,15.94-37.55,31.38-56.37,47.01-12.68,10.53-25.39,21.02-38.1,31.51-.88.72-1.89,1.29-2.83,1.93-16.24-7.72-30.04-18.58-41.56-32.38Z"/>
  <path class="cls-3" d="m217.93,278.75c11.51,13.8,25.31,24.65,41.56,32.38-8.55,7.15-16.88,14.57-25.7,21.37-14.08,10.87-33.57,8.45-44.53-5.68-13.05-16.83-25.79-33.91-38.36-51.09-8.61-11.78-6.07-27.5,5.3-35.95,11.37-8.45,27.06-6.2,36.02,5.33,8.66,11.15,17.15,22.43,25.71,33.65Z"/>
</svg>